<?xml version="1.0" encoding="utf-8"?>
<!-- Generator: Adobe Illustrator 27.8.1, SVG Export Plug-In . SVG Version: 6.00 Build 0)  -->
<svg version="1.1" id="Layer_1" xmlns="http://www.w3.org/2000/svg" xmlns:xlink="http://www.w3.org/1999/xlink" x="0px" y="0px"
	 viewBox="0 0 64 64" style="enable-background:new 0 0 64 64;" xml:space="preserve">
<style type="text/css">
	.st0{fill:none;stroke:#12ABE3;stroke-width:2;stroke-miterlimit:10;}
	.st1{fill:#12ABE3;}
</style>
<circle class="st0" cx="32" cy="32" r="28.5"/>
<g>
	<path class="st1" d="M47,44.5H17c-2.6,0-4.7-2.1-4.7-4.7V21.1c0-2.6,2.1-4.7,4.7-4.7h30c2.6,0,4.7,2.1,4.7,4.7v18.7
		C51.7,42.4,49.6,44.5,47,44.5z M17,18.3c-1.5,0-2.8,1.3-2.8,2.8v18.7c0,1.5,1.3,2.8,2.8,2.8h30c1.5,0,2.8-1.3,2.8-2.8V21.1
		c0-1.5-1.3-2.8-2.8-2.8H17z"/>
	<path class="st1" d="M39.5,52h-15c-0.5,0-0.9-0.4-0.9-0.9s0.4-0.9,0.9-0.9h15c0.5,0,0.9,0.4,0.9,0.9S40,52,39.5,52z"/>
	<path class="st1" d="M32,52c-0.5,0-0.9-0.4-0.9-0.9v-7.5c0-0.5,0.4-0.9,0.9-0.9c0.5,0,0.9,0.4,0.9,0.9v7.5C32.9,51.6,32.5,52,32,52
		z"/>
</g>
</svg>
