<?xml version="1.0" encoding="utf-8"?>
<!-- Generator: Adobe Illustrator 27.8.1, SVG Export Plug-In . SVG Version: 6.00 Build 0)  -->
<svg version="1.1" id="Layer_1" xmlns="http://www.w3.org/2000/svg" xmlns:xlink="http://www.w3.org/1999/xlink" x="0px" y="0px"
	 viewBox="0 0 64 64" style="enable-background:new 0 0 64 64;" xml:space="preserve">
<style type="text/css">
	.st0{fill:#12ABE3;}
	.st1{fill:none;stroke:#12ABE3;stroke-width:2;stroke-miterlimit:10;}
</style>
<g>
	<path class="st0" d="M34.9,52c-0.3,0-0.6-0.2-0.8-0.5l-6.6-14.9l-14.9-6.6c-0.3-0.1-0.5-0.5-0.5-0.8c0-0.3,0.2-0.7,0.6-0.8
		l33.9-11.9c0.3-0.1,0.6,0,0.9,0.2c0.2,0.2,0.3,0.6,0.2,0.9L35.7,51.4C35.5,51.8,35.2,52,34.9,52C34.9,52,34.9,52,34.9,52z
		 M15.1,29.2l13.3,5.9c0.2,0.1,0.3,0.2,0.4,0.4l5.9,13.3l10.6-30.2L15.1,29.2z"/>
	<path class="st0" d="M28.1,36.8c-0.2,0-0.4-0.1-0.6-0.2c-0.3-0.3-0.3-0.9,0-1.2l18.6-18.6c0.3-0.3,0.9-0.3,1.2,0
		c0.3,0.3,0.3,0.9,0,1.2L28.7,36.5C28.5,36.7,28.3,36.8,28.1,36.8z"/>
</g>
<circle class="st1" cx="32" cy="32" r="28.5"/>
</svg>
