<?xml version="1.0" encoding="utf-8"?>
<!-- Generator: Adobe Illustrator 27.9.0, SVG Export Plug-In . SVG Version: 6.00 Build 0)  -->
<svg version="1.1" id="Layer_1" xmlns="http://www.w3.org/2000/svg" xmlns:xlink="http://www.w3.org/1999/xlink" x="0px" y="0px"
	 viewBox="0 0 33 33" style="enable-background:new 0 0 33 33;" xml:space="preserve">
<style type="text/css">
	.st0{fill:#12ABE3;}
</style>
<path class="st0" d="M16.5,32.5c-8.8,0-16-7.2-16-16s7.2-16,16-16c8.8,0,16,7.2,16,16S25.3,32.5,16.5,32.5z M16.5,1
	C7.9,1,1,7.9,1,16.5C1,25.1,7.9,32,16.5,32S32,25.1,32,16.5C32,7.9,25.1,1,16.5,1z"/>
<g>
	<path class="st0" d="M18.3,26.8h-4.5v-8h-3v-4.5h3v-2.8c0-2.9,2.4-5.2,5.2-5.2h3.2v4.5H19c-0.4,0-0.8,0.3-0.8,0.8v2.8h4.1l-1.1,4.5
		h-2.9V26.8z M14.3,26.3h3.5v-8h3.1l0.9-3.5h-3.9v-3.2c0-0.7,0.6-1.2,1.2-1.2h2.8V6.7H19c-2.6,0-4.8,2.1-4.8,4.8v3.2h-3v3.5h3V26.3z
		"/>
</g>
</svg>
